<?xml version="1.0" encoding="utf-8"?>
<!-- Generator: Adobe Illustrator 25.0.0, SVG Export Plug-In . SVG Version: 6.00 Build 0)  -->
<svg version="1.1" id="Layer_1" xmlns="http://www.w3.org/2000/svg" xmlns:xlink="http://www.w3.org/1999/xlink" x="0px" y="0px"
	 viewBox="0 0 841.89 595.28" style="enable-background:new 0 0 841.89 595.28;" xml:space="preserve">
<style type="text/css">
	.st0{fill:#FFFFFF;}
	.st1{fill:none;stroke:#000000;stroke-width:8;stroke-miterlimit:10;}
</style>
<g>
	<g>
		<path class="st0" d="M-8,284.8c70.16-2.53,140.31-4.44,210.47-6.4l105.24-2.64l105.24-2.16c35.08-0.68,70.16-1.96,105.24-3.04
			l26.31-0.59c8.77-0.14,17.54-0.23,26.31-0.24c17.54-0.03,35.08,0.22,52.62,0.67c35.08,0.94,70.16,2.47,105.24,4.69
			c17.54,1.14,35.08,2.43,52.62,3.99c8.77,0.8,17.54,1.62,26.31,2.57c8.77,0.92,17.54,1.96,26.31,3.15v3.2
			c-8.77,1.18-17.54,2.23-26.31,3.15c-8.77,0.94-17.54,1.77-26.31,2.57c-17.54,1.57-35.08,2.86-52.62,3.99
			c-35.08,2.22-70.16,3.76-105.24,4.69c-17.54,0.46-35.08,0.7-52.62,0.67c-8.77-0.01-17.54-0.1-26.31-0.24l-26.31-0.59
			c-35.08-1.08-70.16-2.36-105.24-3.04l-105.24-2.16l-105.24-2.64C132.31,292.44,62.16,290.53-8,288V284.8z"/>
	</g>
	<g>
		<path class="st0" d="M511.47,533.31c25.39-22.69,51.16-44.88,76.9-67.12l19.37-16.6l19.42-16.52l19.51-16.4l19.57-16.33
			c13.08-10.84,25.7-22.28,38.55-33.43c6.43-5.56,12.97-10.98,19.69-16.17c6.71-5.2,13.6-10.17,20.61-14.98
			c14.04-9.6,28.43-18.72,43.25-27.3c7.43-4.27,14.94-8.41,22.63-12.34c3.85-1.95,7.72-3.88,11.66-5.72
			c3.93-1.85,7.91-3.64,12.02-5.26l1.95,2.54c-2.63,3.55-5.38,6.93-8.18,10.25c-2.79,3.33-5.65,6.57-8.54,9.79
			c-5.78,6.41-11.73,12.61-17.77,18.68c-12.11,12.1-24.64,23.66-37.54,34.74c-6.46,5.53-13.04,10.9-19.79,16.04
			c-6.75,5.15-13.67,10.07-20.7,14.85c-14.09,9.53-28.4,18.77-42.25,28.61L661,435.33l-20.88,14.62l-20.97,14.5l-21.03,14.43
			c-28.13,19.12-56.22,38.29-84.69,56.97L511.47,533.31z"/>
	</g>
	<g>
		<path class="st0" d="M513.42,36.97c28.47,18.67,56.56,37.84,84.69,56.97l21.03,14.43l20.97,14.5L661,137.48l20.83,14.69
			c13.85,9.84,28.16,19.08,42.25,28.61c7.03,4.78,13.96,9.7,20.7,14.85c6.75,5.14,13.33,10.51,19.79,16.04
			c12.9,11.08,25.43,22.64,37.54,34.74c6.04,6.07,11.99,12.27,17.77,18.68c2.88,3.22,5.74,6.46,8.54,9.79
			c2.8,3.32,5.56,6.7,8.18,10.25l-1.95,2.54c-4.11-1.62-8.08-3.41-12.02-5.26c-3.94-1.84-7.81-3.77-11.66-5.72
			c-7.69-3.93-15.21-8.07-22.63-12.34c-14.82-8.58-29.22-17.7-43.25-27.3c-7.01-4.81-13.89-9.78-20.61-14.98
			c-6.72-5.19-13.26-10.61-19.69-16.17c-12.84-11.15-25.47-22.59-38.55-33.43l-19.57-16.33l-19.51-16.4l-19.42-16.52l-19.37-16.6
			c-25.74-22.24-51.51-44.43-76.9-67.12L513.42,36.97z"/>
	</g>
</g>
<path class="st1" d="M282.63,163.85"/>
</svg>
