<?xml version="1.0" encoding="utf-8"?>
<!-- Generator: Adobe Illustrator 25.0.0, SVG Export Plug-In . SVG Version: 6.00 Build 0)  -->
<svg version="1.1" id="Layer_1" xmlns="http://www.w3.org/2000/svg" xmlns:xlink="http://www.w3.org/1999/xlink" x="0px" y="0px"
	 viewBox="0 0 595.28 841.89" style="enable-background:new 0 0 595.28 841.89;" xml:space="preserve">
<style type="text/css">
	.st0{fill:url(#SVGID_1_);stroke:#000000;stroke-miterlimit:10;}
	.st1{fill:url(#SVGID_2_);stroke:#000000;stroke-miterlimit:10;}
	.st2{fill:url(#SVGID_3_);stroke:#000000;stroke-miterlimit:10;}
	.st3{fill:#FFFFFF;stroke:#000000;stroke-miterlimit:10;}
	.st4{fill:url(#SVGID_4_);stroke:#000000;stroke-miterlimit:10;}
</style>
<linearGradient id="SVGID_1_" gradientUnits="userSpaceOnUse" x1="596.8829" y1="572.5577" x2="353.3085" y2="365.7492">
	<stop  offset="0" style="stop-color:#FFFFFF"/>
	<stop  offset="1" style="stop-color:#000000"/>
</linearGradient>
<path class="st0" d="M453.3,447.94c-4.48,9.87-17.56,9.18-34.18,12.62c-48.38-64.19-96.42-125.51-87.23-134.03
	C344.95,314.42,469.18,412.91,453.3,447.94z"/>
<linearGradient id="SVGID_2_" gradientUnits="userSpaceOnUse" x1="495.0609" y1="692.4814" x2="251.4864" y2="485.6729">
	<stop  offset="0" style="stop-color:#FFFFFF"/>
	<stop  offset="1" style="stop-color:#000000"/>
</linearGradient>
<path class="st1" d="M351.56,531.74c-4.8,17.88-7.65,32.93-19.67,37.6c-40.56,15.75-135.09-106.3-121.4-121.4
	C220.39,437.01,284.96,484.33,351.56,531.74z"/>
<linearGradient id="SVGID_3_" gradientUnits="userSpaceOnUse" x1="269.4726" y1="391.9036" x2="529.1322" y2="625.5206">
	<stop  offset="0" style="stop-color:#FFFFFF"/>
	<stop  offset="1" style="stop-color:#000000"/>
</linearGradient>
<path class="st2" d="M506.61,614.63c-14.92,15.36-86.08-33.81-155.05-82.89c4.89-18.26,11.8-39.46,32.57-55.57
	c12.22-9.49,24.33-13.4,34.99-15.61C470.18,528.27,521.62,599.18,506.61,614.63z"/>
<path class="st3" d="M327.89,388.8c-28.34,0-51.32,22.98-51.32,51.32s22.98,51.32,51.32,51.32s51.32-22.98,51.32-51.32
	S356.23,388.8,327.89,388.8z M327.89,472.36c-17.81,0-32.25-14.44-32.25-32.25s14.44-32.25,32.25-32.25s32.25,14.44,32.25,32.25
	S345.7,472.36,327.89,472.36z"/>
<linearGradient id="SVGID_4_" gradientUnits="userSpaceOnUse" x1="-5.4439" y1="87.3889" x2="330.5561" y2="458.1123">
	<stop  offset="0" style="stop-color:#FFFFFF"/>
	<stop  offset="1" style="stop-color:#7D4E24"/>
</linearGradient>
<circle class="st4" cx="182.23" cy="294.46" r="145.66"/>
</svg>
